<?xml version="1.0" encoding="UTF-8"?>
<svg version="1.1" viewBox="0 0 2000 2000" width="500" height="500" xmlns="http://www.w3.org/2000/svg">
<path transform="translate(0)" d="m0 0h2e3v2e3h-2e3z" fill="#EDAAD7"/>
<path transform="translate(667,614)" d="m0 0h42l2 1v327h1l7-38 6-22 8-23 12-27 8-16 7-12 10-18 10-14 8-12 12-16 8-10 11-14 11-13 7-9 10-13 7-10 10-21 5-16v-12l-1-4h-2l-2-7 1-1h91l-3 3-15 5-20 10-20 14-15 12-11 9-15 15-11 14-14 17-11 13-11 14-21 28-10 15-10 17-6 11h1l15-8 16-4 8-1h11l17 2 18 6 13 7 11 8 12 11 9 10 9 14 12 22 17 39 16 35 15 30 8 12 9 11 10 8 13 6 17 5v4h-22l-20-3-22-6-15-6-15-9-10-9-10-12-8-14-5-11-6-18-7-33-7-40-5-19-7-16-7-10-7-7-14-7-12-3-8-1h-10l-13 2-16 6-13 9-7 9-9 17-10 26-8 26-6 26-5 33-3 31-2 34-1 5-43 1-1-1v-413z" fill="#FEEDE1"/>
<path transform="translate(1275,1107)" d="m0 0h6l4 6 2 14v76l-1 26 5-1 8-10 13-13 7-8 9-10 15-16 11-15 5-8 6-2h7l3 2-1 6-6 11-7 10-10 13-11 12-9 11-18 18-8 7-7 7-1 2h-2l-2 4-8 7-3 7-6 26-3 14-4 18-4 15-8 24-10 22-7 11-11 12-8 5-8 3h-12l-7-3-4-4-4-13v-10l4-21 5-15 8-16 10-18 12-16 7-8 8-10 7-8 9-10 6-10 1-3 3-43 1-34h-2l-2 7-11 15-9 9-10 8-11 7-9 3h-10l-9-2-7-5-5-12-3-10-1-1h-7l-7 8-17 2-8-1-10-6-8-11-5-11-6-19h-2l-4 9-3 10-5 12-5 17-5 12-2 2-5 1-6-3-2-4-2-14-1-46v-16l-4 1-7 10-13 28-7 16-6 19-4 9-4 10-5 3-7-1-3-5-1-29-5 2-7 8-5 4-9 6-12 4h-12l-7-4-6-9-5-11-1-3-2-1-2 6-13 20h-2l-2 4-7 6-12 6-12 1-9-3-8-9-4-12-1-9v-29l3-25 2-15 3-7 2-1h9l4 3v16l-2 15-2 22v21l4 12 1 1h7l9-6 6-7 7-14 7-17 5-15 5-12 7-20 4-3h8l4 4-1 60 2 10 3 6h9l9-5 9-9 8-11 6-10 3-10 2-14 1-25 2-4 2-1 11 1 3 4 1 5v39l4-2 5-12 8-13 6-11 9-9 6-3h7l6 4 5 8 3 11 2 12 1 2 3-1 5-9 9-7 2-1h8l5 4 4 8 6 19 5 15 4 6 6 3h8l12-7 14-14 8-13 9-19 4-9 4-3h7l3 3v8l-7 20-5 18-3 5-1 22 3 6 3 2 11-1 8-5 11-10 8-11 8-15 4-8 7-18 5-17 4-6z" fill="#FCD880"/>
<path transform="translate(1216,613)" d="m0 0 3 1 19 43 12 28 17 40 13 30 12 29 13 30 7 17 14 33 10 24 10 23 12 28 14 33 20 48 2 5v3l-19 1h-29l-4-6-15-36-12-29-8-20-5-11-14-34-9-22v-2l-31 6-17 5-15 6-12 6-18 13-8 8-10 13-11 17-8 14-9 20-13 30-7 11-8 8-10 5-4 1h-9l-10-4-10-9-6-12-2-9v-12l2-21 5-26 7-25 12-36 10-26 11-26 15-34 15-33 44-88 12-20 12-22zm-26 52-10 19-13 26-9 17-11 24-7 14-13 28-19 43-14 35-14 40-8 28-4 19-2 15v28l4 11 8 9 8 4 3 1h11l10-5 9-9 8-16 19-43 9-17 10-14 12-14 10-10 10-7 14-8 14-6 28-8 22-4 1-3-26-60-18-43-13-30-15-36-12-26z" fill="#FEEDE1"/>
<path transform="translate(1228,347)" d="m0 0 2 3 4 18 6 17 10 16 12 13 10 9 15 9 17 7 11 3 9 1-2 2-18 4-17 6-15 8-13 10-8 8-12 17-8 17-6 21-2-3-4-17-12-25-10-14-8-8-12-9-16-9-15-6-14-4 4-2 22-6 17-8 14-10 14-14 9-13 8-16 5-14z" fill="#FEEDE1"/>
<path transform="translate(865,614)" d="m0 0h91l-3 3-15 5-20 10-20 14-15 12-11 9-15 15-11 14-14 17-11 13-11 14-21 28-10 15-10 17-6 11h1l15-8 16-4 8-1h11l17 2 18 6 13 7 11 8 2 3-3 1-9-6-3-1-3-3-1-2-5-1-1-2-3 1-9-1-12-4-13-2h-10l-13 2-16 6-13 9-7 9-9 17-10 26-8 26-6 26-3 19-2 2-2-4v-12l5-26 6-22 8-23 12-27 8-16 7-12 10-18 10-14 8-12 12-16 8-10 11-14 11-13 7-9 10-13 7-10 10-21 5-16v-12l-1-4h-2l-2-7z" fill="#FEF3EE"/>
<path transform="translate(839,1106)" d="m0 0h12l6 3 3 5-2 6-5 3-20 6-13 9-10 9-8 10-10 19-6 16-5 22-3 9h-13l-2-2-1-6v-14l3-49 3-40 2-4h7l7 3 3 5-1 31 4-2 5-8 17-17 11-7z" fill="#FCD880"/>
<path transform="translate(1200,640)" d="m0 0h2l-3 13-5 11-4 2-22 44-9 17-11 24-7 14-13 28-19 43-14 35-14 40-8 28-4 19-2 15v28l4 11 7 8 8 4 3 1h11l10-5 8-8 8-16 19-43 9-17 10-14 12-14 11-11 10-7 14-8 14-6 20-6h7v3l-11 4-21 7-16 8-18 13-8 8-10 13-11 17-8 14-9 20-13 30-7 11-8 8-10 5-4 1h-9l-10-4-10-9-6-12-2-9v-12l2-21 5-26 7-25 12-36 10-26 11-26 15-34 15-33 44-88 12-20z" fill="#FEF3ED"/>
<path transform="translate(865,614)" d="m0 0h91l-3 3-15 5-20 10-20 14-15 12-11 9-6 5v-3l2-2-2-2-1-9-1-2 5-16v-12l-1-4h-2l-2-7z" fill="#FEEDE1"/>
<path transform="translate(1253,1290)" d="m0 0h4l-1 9-3 10-2 13-14 41-6 12-7 10-8 9-2 1h-6l-3-3-1-4 1-11 8-24 8-16 9-14 10-14 12-17z" fill="#EDAAD7"/>
<path transform="translate(836,1493)" d="m0 0h30l10 3 5 5 2 6v9l-3 6-8 7 3 7 8 17v3l-7-1-8-13-5-11v-2l-21 1 1 2v23l-1 1h-5l-1-1z" fill="#FEF4EF"/>
<path transform="translate(1213,1492)" d="m0 0 5 1 5 8 14 28 2 5 3-4 17-34 3-3h8l1 1v61l-1 1h-5l-1-1-1-48-1-1-13 28-8 16-4-2-8-18-10-20-3-4-1 49h-6l-1-1v-48l1-11z" fill="#FEF4F0"/>
<path transform="translate(788,1492)" d="m0 0 5 1 8 16 10 24 7 19-1 5-5-2-6-12-3-7-29 1-6 17-2 2h-6l-1-3 5-10 5-13 5-11 8-19 4-6z" fill="#FEF4EF"/>
<path transform="translate(1090,1492)" d="m0 0h9l10 3 8 5 6 7 4 9v17l-4 10-6 7-6 4-6 2-14 1-13-4-8-6-5-9-2-6v-16l6-12 9-8 8-3zm-2 7-10 6-5 6-2 5v16l2 5 7 8 9 5h10l9-3 7-6 4-8 1-3v-12l-5-10-7-6-7-3z" fill="#FEF4EF"/>
<path transform="translate(640,1492)" d="m0 0h2l1 2v61l-1 2-5-2-7-7-14-19-10-14-6-8-2-1 1 8v19l-1 22-5 1-1-1v-61l4-1 6 4 8 10 8 11 12 16 5 7 1-48z" fill="#FEF4EF"/>
<path transform="translate(1534,1492)" d="m0 0h10l15 4 6 4-1 5-7-1-11-4h-10l-6 3-2 3v8l5 3 22 5 10 6 2 4v11l-6 9-8 4-6 1h-8l-13-4-7-5-1-6 7 1 12 6h11l8-5 2-3v-7l-5-4-14-3-9-2-8-5-3-4v-10l6-10z" fill="#FEF4F0"/>
<path transform="translate(1160,1492)" d="m0 0h7l16 4 5 4 1 5-7-1-9-4-9-1-9 3-3 4v8l8 4 21 5 6 4 4 5v11l-3 6-6 5-7 3h-14l-12-4-7-5-2-6 4-1 15 7 3 1h9l7-3 5-6-1-6-6-4-22-5-9-5-2-5v-9l5-8 5-4z" fill="#FEF4EF"/>
<path transform="translate(450,1492)" d="m0 0h10l15 5 4 3-1 5-7-1-10-4h-12l-6 3-2 3v6l5 4 10 3 15 4 6 4 3 3 1 10-2 7-5 6-7 3-12 1-13-3-9-6-1-7 6 1 8 5 6 2h10l6-3 4-5v-8l-5-3-22-5-8-4-4-6v-9l3-6 5-5z" fill="#FEF4EF"/>
<path transform="translate(1294,1493)" d="m0 0h44v6l-32 1-5-1v21l24 1 1 5-1 1-23 1-1 21h37l1 1v5l-8 1h-37l-1-1v-61z" fill="#FEF4F0"/>
<path transform="translate(901,1493)" d="m0 0h44l3 2-1 4h-38v22h25l1 4-5 2-21 1v20l37 1 3 2-1 4-10 1h-36l-1-1z" fill="#FEF4EF"/>
<path transform="translate(500,1493)" d="m0 0h5l1 27 9-6 10-10 8-7 6-4h6l-1 4-7 7-8 7-12 10-2 4 16 15 8 7 7 6-1 3-7-1-11-9-10-9-11-9v27l-1 1h-6l-1-1v-20l1-41z" fill="#FEF4EF"/>
<path transform="translate(1020,1492)" d="m0 0 10 1 11 4 5 3 1 4-2 2-5-1-12-5h-13l-8 4-6 7-2 4v17l4 8 8 7 5 2h10l14-5 6-1 1 3-5 5-6 4-7 2h-13l-11-4-7-5-6-9-2-6v-17l6-12 8-7 9-4z" fill="#FEF4F0"/>
<path transform="translate(1476,1492)" d="m0 0 12 1 12 5 3 3-1 5-6-1-11-5h-13l-8 4-6 7-2 4v17l4 8 7 6 7 3h10l10-4 4-2h5l1 3-5 5-4 3-12 3-13-1-10-4-6-5-5-8-2-7v-15l5-12 9-8 9-4z" fill="#FEF4EF"/>
<path transform="translate(716,1492)" d="m0 0h11l15 5 5 3-1 5-5 1-13-6h-12l-12 6-5 8-1 4v11l3 8 4 6 10 5 4 1h7l10-3 6-3 5 1-2 5-10 6-5 2h-13l-12-4-8-6-6-12-1-3v-16l6-12 8-7 9-4z" fill="#FEF4EF"/>
<path transform="translate(1352,1493)" d="m0 0h51l1 5-1 1-21 2-1 55h-7l-1-1v-55l-22-1v-5z" fill="#FEF4EF"/>
<path transform="translate(843,1499)" d="m0 0h13l13 2 5 3 1 2v9l-5 6-7 2h-19l-1-1-1-22z" fill="#EDAAD7"/>
<path transform="translate(562,1493)" d="m0 0h6l2 1v61l-1 1h-5l-1-1-1-10z" fill="#FEF3EE"/>
<path transform="translate(1421,1493)" d="m0 0h6l1 25v37l-1 1h-6l-1-1v-61z" fill="#FEF4EF"/>
<path transform="translate(1228,347)" d="m0 0 2 3 4 18 5 15-1 4-4-7-7-1-7 6h-2l-1 4-3 4h-2l-2 4-3 3h-2l-2 4-2 1 2-4 9-13 8-16 5-14z" fill="#FEF4EF"/>
<path transform="translate(789,1502)" d="m0 0 3 3 8 21v4h-21l-1-3 8-20z" fill="#EDAAD7"/>
<path transform="translate(1336,893)" d="m0 0h2l11 25 15 35-1 4-7-10-6-13-10-23-4-15z" fill="#FEF3EE"/>
<path transform="translate(1216,613)" d="m0 0 3 1 11 25-1 4-4-7-3-3-2-5-6-2-6 2 2-5z" fill="#FEF3EE"/>
<path transform="translate(997,1018)" d="m0 0 9 2 14 4v4h-13l-7-1-3-4z" fill="#FEF4EF"/>
<path transform="translate(1230,645)" d="m0 0 3 1 14 32 8 19-1 4-10-19-2-9-5-10z" fill="#FEF2EC"/>
<path transform="translate(1297,438)" d="m0 0 7 1 11 3 9 1-2 2-18 4h-3v-3h-2z" fill="#FEF3ED"/>
<path transform="translate(1364,958)" d="m0 0h2l8 19 6 14-1 4v-2l-4-2-3-8-1-1v-7h-2l-5-11z" fill="#FEF3ED"/>
<path transform="translate(1225,517)" d="m0 0h4l-1 7-3 12-2-3-1-3v-11h3z" fill="#FEF2EB"/>
<path transform="translate(1140,438)" d="m0 0h7l-2 5-10-1-3-2z" fill="#FEF2EC"/>
<path transform="translate(1268,732)" d="m0 0h2l5 12-1 4-3-4-3-6z" fill="#FEF3ED"/>
<path transform="translate(1389,1018)" d="m0 0h2l3 7v3l-5-1-2-5z" fill="#FEF3EE"/>
<path transform="translate(703,615)" d="m0 0h7v5h-5z" fill="#FEF5F1"/>
<path transform="translate(890,839)" d="m0 0 5 5 3 4-1 2-5-5z" fill="#FEF3ED"/>
<path transform="translate(1264,866)" d="m0 0h9v1l-14 3h-2v-2z" fill="#FEF3ED"/>
</svg>
